<?xml version="1.0" encoding="UTF-8"?> <svg xmlns="http://www.w3.org/2000/svg" width="96.38" height="76.796" viewBox="0 0 96.38 76.796"><g id="atasks" transform="translate(0 -2.25)"><g id="Group_54" data-name="Group 54" transform="translate(0.22 2.25)"><path id="Path_85" data-name="Path 85" d="M10.392,19.194h0a2.286,2.286,0,0,1-1.76-.88L.71,10.392a2.677,2.677,0,0,1,0-3.521,2.677,2.677,0,0,1,3.521,0l6.161,6.161L20.514,2.91a2.677,2.677,0,0,1,3.521,0,2.677,2.677,0,0,1,0,3.521L11.712,18.313C11.272,18.753,10.832,19.194,10.392,19.194Z" transform="translate(-0.05 -2.25)" fill="#135a70"></path></g><g id="Group_55" data-name="Group 55" transform="translate(0.22 30.416)"><path id="Path_86" data-name="Path 86" d="M10.392,25.594a3.336,3.336,0,0,1-1.76-.88L.71,16.792a2.677,2.677,0,0,1,0-3.521,2.677,2.677,0,0,1,3.521,0l6.161,6.161L20.514,9.31a2.677,2.677,0,0,1,3.521,0,2.677,2.677,0,0,1,0,3.521L12.153,24.713C11.272,25.153,10.832,25.594,10.392,25.594Z" transform="translate(-0.05 -8.65)" fill="#135a70"></path></g><g id="Group_56" data-name="Group 56" transform="translate(32.127 10.832)"><path id="Path_87" data-name="Path 87" d="M65.392,8.6H9.5A2.079,2.079,0,0,1,7.3,6.4,2.079,2.079,0,0,1,9.5,4.2H65.392a2.079,2.079,0,0,1,2.2,2.2A2.079,2.079,0,0,1,65.392,8.6Z" transform="translate(-7.3 -4.2)" fill="#135a70"></path></g><g id="Group_57" data-name="Group 57" transform="translate(32.127 38.558)"><path id="Path_88" data-name="Path 88" d="M69.793,14.9H9.5a2.079,2.079,0,0,1-2.2-2.2,2.079,2.079,0,0,1,2.2-2.2H69.353a2.079,2.079,0,0,1,2.2,2.2C71.553,14.021,71.113,14.9,69.793,14.9Z" transform="translate(-7.3 -10.5)" fill="#135a70"></path></g><g id="Group_58" data-name="Group 58" transform="translate(32.127 66.723)"><path id="Path_89" data-name="Path 89" d="M61.431,21.3H9.5a2.079,2.079,0,0,1-2.2-2.2,2.079,2.079,0,0,1,2.2-2.2H61.431a2.079,2.079,0,0,1,2.2,2.2C64.072,20.421,62.752,21.3,61.431,21.3Z" transform="translate(-7.3 -16.9)" fill="#135a70"></path></g><g id="Group_59" data-name="Group 59" transform="translate(0 58.362)"><path id="Path_90" data-name="Path 90" d="M10.562,35.684A10.709,10.709,0,0,1,0,25.122C0,19.841,4.841,15,10.562,15A10.709,10.709,0,0,1,21.124,25.562,10.623,10.623,0,0,1,10.562,35.684Zm0-15.843a5.721,5.721,0,1,0,0,11.442,5.826,5.826,0,0,0,5.721-5.721C15.843,22.482,13.643,19.841,10.562,19.841Z" transform="translate(0 -15)" fill="#135a70"></path></g></g></svg> 