<?xml version="1.0" encoding="UTF-8"?> <svg xmlns="http://www.w3.org/2000/svg" width="70" height="84.527" viewBox="0 0 70 84.527"><g id="documents" transform="translate(-1.89)"><g id="Group_60" data-name="Group 60" transform="translate(1.89)"><path id="Path_91" data-name="Path 91" d="M50.867,68.22H7.117A5.069,5.069,0,0,1,1.926,63.03V5.191C1.555,2.225,4.15,0,7.117,0h43.75a5.069,5.069,0,0,1,5.191,5.191V62.659A5.387,5.387,0,0,1,50.867,68.22ZM7.117,4.078A1.6,1.6,0,0,0,5.633,5.561V63.03a1.6,1.6,0,0,0,1.483,1.483h43.75A1.6,1.6,0,0,0,52.35,63.03V5.191a1.6,1.6,0,0,0-1.483-1.483H7.117Z" transform="translate(-1.89)" fill="#135a70"></path></g><g id="Group_61" data-name="Group 61" transform="translate(17.724 16.677)"><path id="Path_92" data-name="Path 92" d="M54.441,71.55H10.691A5.069,5.069,0,0,1,5.5,66.359V63.022a1.751,1.751,0,0,1,1.854-1.854,1.751,1.751,0,0,1,1.854,1.854v3.337a1.6,1.6,0,0,0,1.483,1.483h43.75a1.6,1.6,0,0,0,1.483-1.483V8.891a1.6,1.6,0,0,0-1.483-1.483H51.1A1.751,1.751,0,0,1,49.25,5.554,1.751,1.751,0,0,1,51.1,3.7h3.337a5.069,5.069,0,0,1,5.191,5.191V66.359C60,69.325,57.407,71.55,54.441,71.55Z" transform="translate(-5.5 -3.7)" fill="#135a70"></path></g></g></svg> 