<?xml version="1.0" encoding="UTF-8"?> <svg xmlns="http://www.w3.org/2000/svg" width="76.114" height="73" viewBox="0 0 76.114 73"><g id="financial" transform="translate(0 -0.5)"><g id="Group_62" data-name="Group 62" transform="translate(0 0.5)"><path id="Path_93" data-name="Path 93" d="M36.673,11.917C36.327,5.344,28.37.5,18.336.5S.346,5.344,0,11.917V62.083C.346,68.31,8.3,73.5,18.336,73.5s17.991-4.844,18.336-11.417V11.917ZM18.336,3.96c7.957,0,14.531,3.806,14.531,7.957,0,4.5-6.573,7.957-14.531,7.957-7.957.346-14.877-3.46-14.877-7.611C3.46,7.765,10.379,3.96,18.336,3.96ZM3.46,19.182c3.46,2.768,8.649,4.5,14.531,4.5,6.227,0,11.417-1.73,14.531-4.5V21.95c0,1.384-.692,2.422-1.73,3.806-2.076,2.768-7.265,4.152-12.455,4.152-5.536,0-10.379-1.73-13.147-4.5a4.258,4.258,0,0,1-1.73-3.46Zm0,9.687c3.46,3.114,8.649,4.844,14.531,4.844s11.071-1.73,14.531-4.844v2.768c0,1.384-.692,2.422-1.73,3.806-2.768,2.768-7.611,4.5-12.8,4.5-5.536,0-10.379-1.73-13.147-4.5a7.306,7.306,0,0,1-1.384-3.46Zm0,10.033c3.46,3.114,9,4.844,14.877,4.844s11.071-1.73,14.531-4.844v2.768c0,1.384-.692,2.422-1.73,3.806-2.768,2.768-7.611,4.5-12.8,4.5-5.536,0-10.379-1.73-13.147-4.5a5.556,5.556,0,0,1-1.73-3.806Zm0,10.033c3.46,3.114,8.649,4.844,14.531,4.844s11.071-1.73,14.531-4.844V51.7c0,1.384-.692,2.422-1.73,3.806-2.768,2.768-7.611,4.5-12.8,4.5-5.536,0-10.379-1.73-13.147-4.5C4.152,54.126,3.46,53.088,3.46,51.7Zm29.408,9.687v2.768c0,4.5-6.573,7.957-14.531,7.957-7.957.346-14.877-3.46-14.877-7.957V58.623c-.346,0-.346-.346-.692-.692.346,0,.346.346.692.346v.346c3.46,3.114,8.649,4.844,14.531,4.844,6.227,0,11.417-1.73,14.877-4.844h0l.692-.692C33.213,58.277,33.213,58.623,32.867,58.623Z" transform="translate(0 -0.5)" fill="#135a70"></path></g><g id="Group_63" data-name="Group 63" transform="translate(2.768 57.585)"><path id="Path_94" data-name="Path 94" d="M1.492,17.446h0c-.346,0-.346,0-.692-.346A1.072,1.072,0,0,0,1.492,17.446Z" transform="translate(-0.8 -16.754)" fill="#135a70"></path><path id="Path_95" data-name="Path 95" d="M10.192,17.1l-.692.692v-.346C9.846,17.446,10.192,17.446,10.192,17.1Z" transform="translate(20.6 -16.754)" fill="#135a70"></path><path id="Path_96" data-name="Path 96" d="M9.8,17Z" transform="translate(21.337 -17)" fill="#135a70"></path></g><g id="Group_64" data-name="Group 64" transform="translate(32.867 57.585)"><path id="Path_97" data-name="Path 97" d="M10.192,17.1l-.692.692v-.346C9.846,17.446,10.192,17.446,10.192,17.1Z" transform="translate(-9.5 -16.754)" fill="#135a70"></path><path id="Path_98" data-name="Path 98" d="M9.8,17Z" transform="translate(-8.762 -17)" fill="#135a70"></path></g><g id="Group_65" data-name="Group 65" transform="translate(2.768 57.931)"><path id="Path_99" data-name="Path 99" d="M1.492,17.446h0c-.346,0-.346,0-.692-.346A1.072,1.072,0,0,0,1.492,17.446Z" transform="translate(-0.8 -17.1)" fill="#135a70"></path></g><g id="Group_66" data-name="Group 66" transform="translate(39.441 20.22)"><path id="Path_100" data-name="Path 100" d="M48.073,17.617C47.727,11.39,39.77,6.2,29.736,6.2S11.746,11.044,11.4,17.617v30.1a9.3,9.3,0,0,0,2.768,6.227c3.46,3.46,9,5.536,15.569,5.536S41.846,57.4,45.305,53.944a9.3,9.3,0,0,0,2.768-6.227v-30.1ZM29.736,9.66c7.957,0,14.877,3.806,14.877,8.3S38.04,25.92,30.082,25.92s-14.531-3.806-14.531-7.957C15.206,13.465,21.779,9.66,29.736,9.66ZM15.206,24.882c3.46,2.768,8.649,4.5,14.531,4.5,6.227,0,11.417-1.73,14.531-4.5V27.65c0,1.384-.692,2.422-1.73,3.806-2.768,2.768-7.611,4.5-13.147,4.5s-10.379-1.73-12.8-4.5a5.556,5.556,0,0,1-1.73-3.806V24.882Zm0,10.033c3.46,3.114,8.649,4.844,14.531,4.844s11.071-1.73,14.531-4.844v2.768c0,1.384-.692,2.422-1.73,3.806-2.768,2.768-7.611,4.5-13.147,4.5s-10.379-1.73-12.8-4.5a5.556,5.556,0,0,1-1.73-3.806V34.916ZM42.883,51.176c-2.768,2.768-7.611,4.5-13.147,4.5s-10.379-1.73-12.8-4.5a5.556,5.556,0,0,1-1.73-3.806V44.6c3.46,2.768,8.649,4.5,14.531,4.5s11.071-1.73,14.531-4.844v2.768A4.45,4.45,0,0,1,42.883,51.176Z" transform="translate(-11.4 -6.2)" fill="#135a70"></path></g></g></svg> 